<svg width="18" height="17" viewBox="0 0 18 17" fill="none" xmlns="http://www.w3.org/2000/svg">
  <path
    d="M4.55556 4.87097H13.4444M4.55556 8.74194H10.3333M12.5556 16L9 12.6129H2.77778C2.30628 12.6129 1.8541 12.409 1.5207 12.046C1.1873 11.683 1 11.1907 1 10.6774V2.93548C1 2.42216 1.1873 1.92986 1.5207 1.56689C1.8541 1.20392 2.30628 1 2.77778 1H15.2222C15.6937 1 16.1459 1.20392 16.4793 1.56689C16.8127 1.92986 17 2.42216 17 2.93548V10.6774C17 11.1907 16.8127 11.683 16.4793 12.046C16.1459 12.409 15.6937 12.6129 15.2222 12.6129H12.5556V16Z"
    stroke="black" stroke-width="2" stroke-linecap="round" stroke-linejoin="round" />
</svg>
