<svg width="567" height="102" viewBox="0 0 567 102" fill="none" xmlns="http://www.w3.org/2000/svg" class="text-gray-800">
  <title>JamComments</title>
  <path fill-rule="evenodd" clip-rule="evenodd"
    d="M15.7253 10.775C14.8077 10.775 13.701 11.1929 12.7269 12.3284C11.7299 13.4907 11.0528 15.2313 11.0528 17.1951V63.7758C11.0528 65.7396 11.7299 67.4802 12.7269 68.6425C13.701 69.778 14.8077 70.1959 15.7253 70.1959H50.6887C52.1332 70.1959 53.5156 70.7735 54.5178 71.7958L65.3508 82.8456V75.4209C65.3508 72.5352 67.7313 70.1959 70.6678 70.1959H85.6521C86.5697 70.1959 87.6764 69.778 88.6505 68.6425C89.6475 67.4802 90.3246 65.7396 90.3246 63.7758V17.1951C90.3246 15.2313 89.6475 13.4907 88.6505 12.3284C87.6764 11.1929 86.5697 10.775 85.6521 10.775H15.7253ZM4.59633 5.59311C7.36904 2.36086 11.3441 0.324982 15.7253 0.324982H85.6521C90.0333 0.324982 94.0083 2.36086 96.7811 5.59311C99.5309 8.79864 100.959 12.982 100.959 17.1951V63.7758C100.959 67.9889 99.5309 72.1723 96.7811 75.3778C94.0083 78.61 90.0333 80.6459 85.6521 80.6459H75.9848V95.8C75.9848 97.931 74.6678 99.8485 72.6567 100.646C70.6455 101.443 68.3433 100.96 66.8387 99.4251L48.4281 80.6459H15.7253C11.3441 80.6459 7.36904 78.61 4.59633 75.3778C1.84653 72.1723 0.418732 67.9889 0.418732 63.7758V17.1951C0.418732 12.982 1.84653 8.79865 4.59633 5.59311ZM20.3978 28.8403C20.3978 25.9546 22.7783 23.6153 25.7148 23.6153H75.6626C78.5991 23.6153 80.9796 25.9546 80.9796 28.8403C80.9796 31.726 78.5991 34.0653 75.6626 34.0653H25.7148C22.7783 34.0653 20.3978 31.726 20.3978 28.8403ZM20.3978 52.1306C20.3978 49.2449 22.7783 46.9056 25.7148 46.9056H58.1809C61.1174 46.9056 63.4979 49.2449 63.4979 52.1306C63.4979 55.0163 61.1174 57.3556 58.1809 57.3556H25.7148C22.7783 57.3556 20.3978 55.0163 20.3978 52.1306Z"
    fill="" style="fill: currentColor;" />
  <path
    d="M144.755 24.7891H154.689V56.686C154.689 59.7752 154.002 62.4412 152.626 64.6841C151.272 66.9058 149.41 68.6196 147.041 69.8257C144.692 71.0317 142.047 71.6348 139.106 71.6348C136.08 71.6348 133.382 71.127 131.013 70.1113C128.664 69.0745 126.813 67.4982 125.458 65.3823C124.125 63.2453 123.459 60.5369 123.459 57.2573H133.488C133.488 59.6694 133.986 61.3304 134.98 62.2402C135.996 63.1501 137.371 63.605 139.106 63.605C140.841 63.605 142.216 63.002 143.232 61.7959C144.248 60.5898 144.755 58.8866 144.755 56.686V24.7891Z"
    fill="" style="fill: currentColor;" />
  <path
    d="M180.397 48.1167C180.397 46.5721 180.017 45.3449 179.255 44.4351C178.493 43.5252 177.277 43.0703 175.605 43.0703C174.145 43.0703 173.013 43.4194 172.209 44.1177C171.405 44.8159 171.003 45.7892 171.003 47.0376H161.418C161.418 45.0063 162.021 43.1655 163.227 41.5151C164.433 39.8436 166.136 38.5106 168.337 37.5161C170.537 36.5216 173.129 36.0244 176.113 36.0244C178.779 36.0244 181.159 36.4793 183.254 37.3892C185.349 38.2778 186.999 39.6214 188.205 41.4199C189.411 43.2184 190.014 45.4718 190.014 48.1802V62.5259C190.014 64.5571 190.131 66.1652 190.363 67.3501C190.617 68.535 190.966 69.5718 191.411 70.4604V71H181.762C181.381 70.196 181.075 69.1909 180.842 67.9849C179.953 69.0005 178.811 69.868 177.414 70.5874C176.039 71.2856 174.335 71.6348 172.304 71.6348C170.125 71.6348 168.146 71.201 166.369 70.3335C164.613 69.4448 163.216 68.2282 162.18 66.6836C161.143 65.1178 160.625 63.3299 160.625 61.3198C160.625 57.7228 161.958 54.9404 164.624 52.9727C167.29 50.9837 171.257 49.9893 176.525 49.9893H180.397V48.1167ZM174.431 64.3667C175.912 64.3667 177.16 64.0493 178.176 63.4146C179.213 62.7586 179.953 62.0392 180.397 61.2563V55.5117H176.811C174.484 55.5117 172.801 56.0195 171.765 57.0352C170.728 58.0296 170.209 59.2357 170.209 60.6533C170.209 61.7324 170.59 62.6211 171.352 63.3193C172.114 64.0176 173.14 64.3667 174.431 64.3667Z"
    fill="" style="fill: currentColor;" />
  <path
    d="M206.455 71H196.87V36.6592H205.883L206.201 40.4043C207.322 39.029 208.697 37.9604 210.327 37.1987C211.977 36.4159 213.86 36.0244 215.976 36.0244C218.007 36.0244 219.806 36.437 221.372 37.2622C222.937 38.0874 224.154 39.3993 225.021 41.1978C226.122 39.5897 227.518 38.3307 229.211 37.4209C230.925 36.4899 232.935 36.0244 235.241 36.0244C238.542 36.0244 241.197 37.0083 243.208 38.9761C245.218 40.9438 246.223 44.3504 246.223 49.1958V71H236.574V49.1641C236.574 46.9635 236.14 45.5247 235.273 44.8477C234.405 44.1494 233.21 43.8003 231.687 43.8003C230.375 43.8003 229.274 44.1177 228.386 44.7524C227.497 45.3872 226.809 46.2441 226.323 47.3232C226.323 47.5771 226.323 47.8311 226.323 48.085V71H216.738V49.2593C216.738 47.0588 216.293 45.5988 215.405 44.8794C214.537 44.16 213.331 43.8003 211.787 43.8003C210.559 43.8003 209.501 44.0648 208.613 44.5938C207.724 45.1227 207.005 45.8527 206.455 46.7837V71Z"
    fill="" style="fill: currentColor;" />
  <path
    d="M290.244 55.5117C290.053 58.6644 289.196 61.4574 287.673 63.8906C286.149 66.3027 284.023 68.1965 281.293 69.5718C278.585 70.9471 275.327 71.6348 271.518 71.6348C267.519 71.6348 264.081 70.7355 261.203 68.937C258.347 67.1174 256.146 64.5465 254.602 61.2246C253.057 57.8815 252.285 53.9142 252.285 49.3228V46.498C252.285 41.9066 253.078 37.9393 254.665 34.5962C256.273 31.2531 258.516 28.6717 261.394 26.8521C264.292 25.0324 267.688 24.1226 271.582 24.1226C275.475 24.1226 278.754 24.842 281.42 26.2808C284.108 27.6984 286.181 29.645 287.641 32.1206C289.122 34.5962 290.011 37.4209 290.307 40.5947H280.341C280.151 37.8864 279.41 35.834 278.12 34.4375C276.85 33.0199 274.671 32.311 271.582 32.311C268.492 32.311 266.186 33.443 264.663 35.707C263.16 37.971 262.409 41.5469 262.409 46.4346V49.3228C262.409 54.1047 263.097 57.6593 264.472 59.9868C265.869 62.3143 268.217 63.478 271.518 63.478C274.417 63.478 276.554 62.8221 277.929 61.5103C279.305 60.1772 280.098 58.1777 280.31 55.5117H290.244Z"
    fill="" style="fill: currentColor;" />
  <path
    d="M294.274 53.5122C294.274 50.1691 294.909 47.1857 296.179 44.562C297.448 41.9172 299.3 39.833 301.733 38.3096C304.166 36.7861 307.118 36.0244 310.588 36.0244C314.1 36.0244 317.073 36.7861 319.506 38.3096C321.961 39.833 323.812 41.9172 325.061 44.562C326.33 47.1857 326.965 50.1691 326.965 53.5122V54.1787C326.965 57.5007 326.33 60.484 325.061 63.1289C323.812 65.7526 321.971 67.8262 319.538 69.3496C317.105 70.873 314.143 71.6348 310.651 71.6348C307.16 71.6348 304.187 70.873 301.733 69.3496C299.3 67.8262 297.448 65.7526 296.179 63.1289C294.909 60.484 294.274 57.5007 294.274 54.1787V53.5122ZM303.891 54.1787C303.891 55.9772 304.103 57.617 304.526 59.0981C304.949 60.5793 305.658 61.7536 306.652 62.6211C307.647 63.4886 308.98 63.9224 310.651 63.9224C313.127 63.9224 314.862 62.9808 315.856 61.0977C316.872 59.1934 317.38 56.887 317.38 54.1787V53.5122C317.38 51.756 317.158 50.1374 316.713 48.6562C316.29 47.1751 315.581 45.9902 314.587 45.1016C313.614 44.1917 312.281 43.7368 310.588 43.7368C308.938 43.7368 307.626 44.1917 306.652 45.1016C305.679 45.9902 304.97 47.1751 304.526 48.6562C304.103 50.1374 303.891 51.756 303.891 53.5122V54.1787Z"
    fill="" style="fill: currentColor;" />
  <path
    d="M342.041 71H332.456V36.6592H341.469L341.787 40.4043C342.908 39.029 344.283 37.9604 345.913 37.1987C347.563 36.4159 349.446 36.0244 351.562 36.0244C353.593 36.0244 355.392 36.437 356.958 37.2622C358.523 38.0874 359.74 39.3993 360.607 41.1978C361.708 39.5897 363.104 38.3307 364.797 37.4209C366.511 36.4899 368.521 36.0244 370.827 36.0244C374.128 36.0244 376.783 37.0083 378.793 38.9761C380.804 40.9438 381.809 44.3504 381.809 49.1958V71H372.16V49.1641C372.16 46.9635 371.726 45.5247 370.859 44.8477C369.991 44.1494 368.796 43.8003 367.272 43.8003C365.961 43.8003 364.86 44.1177 363.972 44.7524C363.083 45.3872 362.395 46.2441 361.909 47.3232C361.909 47.5771 361.909 47.8311 361.909 48.085V71H352.324V49.2593C352.324 47.0588 351.879 45.5988 350.991 44.8794C350.123 44.16 348.917 43.8003 347.373 43.8003C346.145 43.8003 345.087 44.0648 344.199 44.5938C343.31 45.1227 342.591 45.8527 342.041 46.7837V71Z"
    fill="" style="fill: currentColor;" />
  <path
    d="M398.281 71H388.696V36.6592H397.709L398.027 40.4043C399.148 39.029 400.524 37.9604 402.153 37.1987C403.803 36.4159 405.686 36.0244 407.802 36.0244C409.833 36.0244 411.632 36.437 413.198 37.2622C414.764 38.0874 415.98 39.3993 416.848 41.1978C417.948 39.5897 419.344 38.3307 421.037 37.4209C422.751 36.4899 424.761 36.0244 427.067 36.0244C430.368 36.0244 433.024 37.0083 435.034 38.9761C437.044 40.9438 438.049 44.3504 438.049 49.1958V71H428.4V49.1641C428.4 46.9635 427.967 45.5247 427.099 44.8477C426.232 44.1494 425.036 43.8003 423.513 43.8003C422.201 43.8003 421.101 44.1177 420.212 44.7524C419.323 45.3872 418.636 46.2441 418.149 47.3232C418.149 47.5771 418.149 47.8311 418.149 48.085V71H408.564V49.2593C408.564 47.0588 408.12 45.5988 407.231 44.8794C406.363 44.16 405.157 43.8003 403.613 43.8003C402.386 43.8003 401.328 44.0648 400.439 44.5938C399.55 45.1227 398.831 45.8527 398.281 46.7837V71Z"
    fill="" style="fill: currentColor;" />
  <path
    d="M460.964 71.6348C457.346 71.6348 454.246 70.8836 451.665 69.3813C449.104 67.8791 447.137 65.869 445.761 63.3511C444.407 60.8332 443.73 58.0508 443.73 55.0039V53.7661C443.73 50.3384 444.375 47.2915 445.666 44.6255C446.978 41.9595 448.84 39.8647 451.252 38.3413C453.664 36.7967 456.542 36.0244 459.885 36.0244C464.857 36.0244 468.645 37.569 471.247 40.6582C473.85 43.7262 475.151 47.8099 475.151 52.9092V56.9717H453.474C453.812 59.0664 454.68 60.7485 456.076 62.0181C457.494 63.2664 459.324 63.8906 461.567 63.8906C463.196 63.8906 464.709 63.5944 466.105 63.002C467.523 62.3883 468.74 61.4362 469.755 60.1455L474.389 65.4458C473.31 66.9904 471.639 68.408 469.375 69.6987C467.111 70.9894 464.307 71.6348 460.964 71.6348ZM459.821 43.7368C457.938 43.7368 456.499 44.3716 455.505 45.6411C454.51 46.8895 453.854 48.5187 453.537 50.5288H465.725V49.7671C465.703 48.0109 465.217 46.5721 464.265 45.4507C463.334 44.3081 461.853 43.7368 459.821 43.7368Z"
    fill="" style="fill: currentColor;" />
  <path
    d="M489.528 71H479.943V36.6592H488.957L489.274 40.563C491.708 37.5373 494.977 36.0244 499.082 36.0244C501.24 36.0244 503.133 36.4476 504.763 37.2939C506.392 38.1191 507.661 39.4945 508.571 41.4199C509.481 43.3454 509.936 45.9479 509.936 49.2275V71H500.319V49.1641C500.319 47.0482 499.864 45.6305 498.955 44.9111C498.045 44.1706 496.733 43.8003 495.019 43.8003C493.75 43.8003 492.66 44.0648 491.75 44.5938C490.84 45.1227 490.1 45.8527 489.528 46.7837V71Z"
    fill="" style="fill: currentColor;" />
  <path
    d="M533.835 43.6416H528.027V60.2725C528.027 61.6689 528.302 62.5999 528.852 63.0654C529.423 63.5309 530.312 63.7637 531.518 63.7637C532.089 63.7637 532.597 63.7425 533.042 63.7002C533.486 63.6579 533.867 63.605 534.184 63.5415L534.152 70.7778C533.369 71.0317 532.513 71.2327 531.582 71.3809C530.672 71.5501 529.646 71.6348 528.503 71.6348C525.414 71.6348 522.959 70.8413 521.14 69.2544C519.341 67.6675 518.442 65.0332 518.442 61.3516V43.6416H513.554V36.6592H518.442V28.1851H528.027V36.6592H533.835V43.6416Z"
    fill="" style="fill: currentColor;" />
  <path
    d="M557.163 61.415C557.163 60.484 556.708 59.7118 555.798 59.0981C554.909 58.4634 553.058 57.8498 550.244 57.2573C547.916 56.7707 545.832 56.0936 543.991 55.2261C542.172 54.3374 540.722 53.2054 539.643 51.8301C538.585 50.4548 538.056 48.7726 538.056 46.7837C538.056 44.8582 538.606 43.0809 539.707 41.4517C540.807 39.8224 542.383 38.5106 544.436 37.5161C546.509 36.5216 548.985 36.0244 551.862 36.0244C556.369 36.0244 559.913 37.0718 562.495 39.1665C565.097 41.2401 566.398 43.8955 566.398 47.1328H556.813C556.813 45.8421 556.411 44.7948 555.607 43.9907C554.825 43.1655 553.566 42.7529 551.831 42.7529C550.413 42.7529 549.292 43.0915 548.466 43.7686C547.641 44.4456 547.229 45.292 547.229 46.3076C547.229 47.2809 547.683 48.0744 548.593 48.688C549.524 49.2804 551.143 49.7882 553.449 50.2114C555.882 50.6981 558.083 51.3434 560.051 52.1475C562.019 52.9303 563.584 54.0412 564.748 55.48C565.912 56.8976 566.494 58.7596 566.494 61.0659C566.494 63.0972 565.891 64.9062 564.685 66.4932C563.5 68.0801 561.807 69.339 559.606 70.27C557.427 71.1799 554.856 71.6348 551.894 71.6348C548.657 71.6348 545.927 71.0529 543.706 69.8892C541.484 68.7254 539.802 67.2549 538.659 65.4775C537.517 63.679 536.945 61.8488 536.945 59.9868H546.022C546.107 61.7007 546.731 62.9491 547.895 63.7319C549.08 64.4937 550.487 64.8745 552.116 64.8745C553.767 64.8745 555.015 64.5571 555.861 63.9224C556.729 63.2876 557.163 62.4518 557.163 61.415Z"
    fill="" style="fill: currentColor;" />
</svg>
