<svg width="705" height="102" viewBox="0 0 705 102" fill="none" xmlns="http://www.w3.org/2000/svg">
<path d="M154.582 14.5156H165.299V56.0299C165.299 59.9758 164.427 63.3503 162.682 66.1533C160.965 68.9291 158.611 71.0653 155.62 72.5621C152.657 74.0316 149.279 74.7664 145.485 74.7664C141.636 74.7664 138.216 74.1269 135.225 72.8478C132.262 71.5416 129.922 69.5686 128.205 66.9289C126.515 64.2892 125.671 60.9283 125.671 56.8463H136.388C136.388 60.248 137.219 62.6836 138.88 64.1531C140.569 65.5954 142.771 66.3166 145.485 66.3166C148.171 66.3166 150.359 65.4321 152.048 63.6633C153.737 61.8944 154.582 59.3499 154.582 56.0299V14.5156Z" fill="black"/>
<path d="M201.438 44.1103C201.438 41.8244 200.787 40.0011 199.486 38.6404C198.212 37.2797 196.273 36.5994 193.67 36.5994C191.316 36.5994 189.433 37.1709 188.021 38.3139C186.636 39.4568 185.944 40.8855 185.944 42.6H175.642C175.642 40.2324 176.404 38.0145 177.927 35.9463C179.45 33.8508 181.596 32.1636 184.366 30.8846C187.163 29.6055 190.458 28.966 194.252 28.966C199.32 28.966 203.501 30.2314 206.797 32.7623C210.092 35.2932 211.74 39.1031 211.74 44.192V63.6633C211.74 67.6909 212.321 70.8885 213.485 73.256V73.95H202.934C202.463 72.9159 202.089 71.5144 201.812 69.7455C200.51 71.1334 198.863 72.3172 196.869 73.2969C194.903 74.2765 192.576 74.7664 189.89 74.7664C186.955 74.7664 184.338 74.1949 182.039 73.0519C179.741 71.909 177.927 70.3442 176.598 68.3576C175.296 66.371 174.645 64.1123 174.645 61.5814C174.645 56.9007 176.432 53.3085 180.004 50.8049C183.576 48.3012 188.644 47.0494 195.207 47.0494H201.438V44.1103ZM191.926 66.7248C194.252 66.7248 196.246 66.1941 197.907 65.1328C199.569 64.0443 200.746 62.8333 201.438 61.4998V53.2949H195.955C192.3 53.2949 189.544 53.9616 187.689 55.2951C185.861 56.6014 184.947 58.3838 184.947 60.6426C184.947 62.3842 185.543 63.8402 186.733 65.0103C187.952 66.1533 189.683 66.7248 191.926 66.7248Z" fill="black"/>
<path d="M232.468 73.95H222.125V29.7824H231.845L232.177 34.5992C233.673 32.8303 235.5 31.4561 237.66 30.4764C239.848 29.4695 242.368 28.966 245.22 28.966C247.99 28.966 250.441 29.5103 252.573 30.5988C254.705 31.6874 256.353 33.4154 257.516 35.783C258.984 33.7148 260.867 32.0684 263.165 30.8437C265.492 29.5919 268.205 28.966 271.307 28.966C275.876 28.966 279.463 30.2314 282.066 32.7623C284.697 35.2932 286.012 39.5249 286.012 45.4574V73.95H275.669V45.3758C275.669 42.1374 274.949 39.9739 273.509 38.8853C272.096 37.7968 270.186 37.2525 267.776 37.2525C265.533 37.2525 263.692 37.8376 262.252 39.0078C260.812 40.178 259.801 41.7019 259.219 43.5797C259.219 43.879 259.219 44.192 259.219 44.5185V73.95H248.917V45.4574C248.917 42.3279 248.197 40.178 246.757 39.0078C245.345 37.8376 243.42 37.2525 240.983 37.2525C238.851 37.2525 237.093 37.7016 235.708 38.5996C234.323 39.4704 233.243 40.6678 232.468 42.1918V73.95Z" fill="black"/>
<path d="M343.461 54.5195C343.101 58.4383 341.979 61.9216 340.096 64.9695C338.213 68.0174 335.568 70.4122 332.162 72.1539C328.756 73.8956 324.588 74.7664 319.659 74.7664C314.674 74.7664 310.354 73.6234 306.698 71.3375C303.043 69.0243 300.218 65.7587 298.224 61.5406C296.231 57.3225 295.234 52.3424 295.234 46.6004V41.906C295.234 36.164 296.244 31.1839 298.266 26.9658C300.288 22.7477 303.154 19.4821 306.865 17.1689C310.603 14.8558 315.006 13.6992 320.074 13.6992C324.92 13.6992 329.005 14.5837 332.328 16.3525C335.679 18.0942 338.268 20.5162 340.096 23.6186C341.951 26.6937 343.073 30.2314 343.461 34.2318H332.785C332.37 30.4491 331.22 27.5101 329.337 25.4146C327.482 23.3192 324.394 22.2715 320.074 22.2715C315.394 22.2715 311.877 23.9587 309.523 27.3332C307.197 30.6805 306.034 35.5109 306.034 41.8244V46.6004C306.034 52.6146 307.1 57.3905 309.232 60.9283C311.365 64.4389 314.84 66.1941 319.659 66.1941C324.062 66.1941 327.219 65.2008 329.13 63.2142C331.068 61.2004 332.273 58.3022 332.744 54.5195H343.461Z" fill="black"/>
<path d="M349.858 51.458C349.858 47.1583 350.688 43.3212 352.35 39.9467C354.012 36.545 356.393 33.8644 359.495 31.9051C362.624 29.9457 366.376 28.966 370.752 28.966C375.183 28.966 378.963 29.9457 382.092 31.9051C385.221 33.8644 387.603 36.545 389.237 39.9467C390.898 43.3212 391.729 47.1583 391.729 51.458V52.3152C391.729 56.5877 390.898 60.4249 389.237 63.8265C387.603 67.201 385.221 69.868 382.092 71.8273C378.99 73.7867 375.238 74.7664 370.835 74.7664C366.432 74.7664 362.666 73.7867 359.536 71.8273C356.407 69.868 354.012 67.201 352.35 63.8265C350.688 60.4249 349.858 56.5877 349.858 52.3152V51.458ZM360.159 52.3152C360.159 54.9277 360.519 57.3225 361.239 59.4996C361.987 61.6495 363.15 63.3775 364.729 64.6838C366.307 65.99 368.343 66.6432 370.835 66.6432C373.3 66.6432 375.307 65.99 376.858 64.6838C378.437 63.3775 379.586 61.6495 380.306 59.4996C381.054 57.3225 381.427 54.9277 381.427 52.3152V51.458C381.427 48.8999 381.054 46.5323 380.306 44.3553C379.586 42.1782 378.437 40.4229 376.858 39.0894C375.28 37.756 373.244 37.0893 370.752 37.0893C368.287 37.0893 366.266 37.756 364.687 39.0894C363.136 40.4229 361.987 42.1782 361.239 44.3553C360.519 46.5323 360.159 48.8999 360.159 51.458V52.3152Z" fill="black"/>
<path d="M410.422 73.95H400.079V29.7824H409.799L410.131 34.5992C411.626 32.8303 413.454 31.4561 415.614 30.4764C417.802 29.4695 420.322 28.966 423.174 28.966C425.944 28.966 428.394 29.5103 430.527 30.5988C432.659 31.6874 434.307 33.4154 435.47 35.783C436.938 33.7148 438.821 32.0684 441.119 30.8437C443.445 29.5919 446.159 28.966 449.261 28.966C453.83 28.966 457.416 30.2314 460.02 32.7623C462.65 35.2932 463.966 39.5249 463.966 45.4574V73.95H453.623V45.3758C453.623 42.1374 452.903 39.9739 451.463 38.8853C450.05 37.7968 448.139 37.2525 445.73 37.2525C443.487 37.2525 441.645 37.8376 440.205 39.0078C438.765 40.178 437.755 41.7019 437.173 43.5797C437.173 43.879 437.173 44.192 437.173 44.5185V73.95H426.871V45.4574C426.871 42.3279 426.151 40.178 424.711 39.0078C423.299 37.8376 421.374 37.2525 418.937 37.2525C416.805 37.2525 415.047 37.7016 413.662 38.5996C412.277 39.4704 411.197 40.6678 410.422 42.1918V73.95Z" fill="black"/>
<path d="M484.445 73.95H474.101V29.7824H483.822L484.154 34.5992C485.649 32.8303 487.477 31.4561 489.637 30.4764C491.825 29.4695 494.345 28.966 497.197 28.966C499.966 28.966 502.417 29.5103 504.55 30.5988C506.682 31.6874 508.33 33.4154 509.493 35.783C510.96 33.7148 512.844 32.0684 515.142 30.8437C517.468 29.5919 520.182 28.966 523.284 28.966C527.853 28.966 531.439 30.2314 534.042 32.7623C536.673 35.2932 537.989 39.5249 537.989 45.4574V73.95H527.645V45.3758C527.645 42.1374 526.925 39.9739 525.485 38.8853C524.073 37.7968 522.162 37.2525 519.753 37.2525C517.51 37.2525 515.668 37.8376 514.228 39.0078C512.788 40.178 511.777 41.7019 511.196 43.5797C511.196 43.879 511.196 44.192 511.196 44.5185V73.95H500.894V45.4574C500.894 42.3279 500.174 40.178 498.734 39.0078C497.322 37.8376 495.397 37.2525 492.96 37.2525C490.828 37.2525 489.069 37.7016 487.685 38.5996C486.3 39.4704 485.22 40.6678 484.445 42.1918V73.95Z" fill="black"/>
<path d="M568.063 74.7664C563.604 74.7664 559.755 73.8275 556.515 71.9498C553.275 70.0448 550.783 67.4868 549.038 64.2756C547.293 61.0372 546.421 57.4178 546.421 53.4174V51.7437C546.421 47.1447 547.307 43.1443 549.08 39.7426C550.852 36.3137 553.275 33.6603 556.349 31.7826C559.451 29.9049 562.954 28.966 566.858 28.966C571.178 28.966 574.765 29.8913 577.617 31.7418C580.469 33.5651 582.602 36.1096 584.014 39.3752C585.426 42.6136 586.133 46.3691 586.133 50.6416V55.0094H556.806C557.083 58.3566 558.26 61.1324 560.337 63.3367C562.414 65.5138 565.197 66.6023 568.686 66.6023C571.095 66.6023 573.228 66.1397 575.083 65.2144C576.939 64.2892 578.559 62.9557 579.943 61.214L585.343 66.5207C583.903 68.6161 581.771 70.5211 578.946 72.2355C576.122 73.9228 572.494 74.7664 568.063 74.7664ZM566.817 37.0893C564.075 37.0893 561.874 38.0417 560.212 39.9467C558.551 41.8516 557.484 44.4369 557.014 47.7025H575.955V46.9269C575.9 45.2125 575.554 43.6069 574.917 42.1101C574.308 40.6134 573.339 39.4024 572.009 38.4771C570.708 37.5519 568.977 37.0893 566.817 37.0893Z" fill="black"/>
<path d="M604.036 73.95H593.734V29.7824H603.413L603.745 35.0074C605.324 33.0753 607.221 31.5921 609.436 30.558C611.651 29.4967 614.116 28.966 616.83 28.966C621.15 28.966 624.612 30.2178 627.215 32.7215C629.846 35.1979 631.161 39.4568 631.161 45.4982V73.95H620.818V45.4166C620.818 42.3415 620.139 40.2188 618.782 39.0486C617.453 37.8512 615.515 37.2525 612.967 37.2525C610.918 37.2525 609.131 37.7424 607.608 38.7221C606.113 39.6745 604.922 40.9672 604.036 42.6V73.95Z" fill="black"/>
<path d="M662.108 37.2525H654.132V61.4998C654.132 63.5136 654.561 64.8335 655.42 65.4594C656.278 66.0581 657.428 66.3574 658.868 66.3574C659.56 66.3574 660.225 66.3166 660.862 66.2349C661.499 66.1533 662.011 66.0717 662.399 65.99V73.7867C661.568 74.0588 660.598 74.2902 659.491 74.4806C658.383 74.6711 657.109 74.7664 655.669 74.7664C652.208 74.7664 649.369 73.8275 647.154 71.9498C644.938 70.0448 643.831 66.8064 643.831 62.2346V37.2525H636.603V29.7824H643.831V18.965H654.132V29.7824H662.108V37.2525Z" fill="black"/>
<path d="M694.799 61.908C694.799 60.9827 694.55 60.1391 694.051 59.3771C693.553 58.5879 692.611 57.8804 691.227 57.2545C689.842 56.6286 687.821 56.0299 685.162 55.4584C680.399 54.4787 676.522 52.982 673.531 50.9682C670.568 48.9544 669.086 46.0833 669.086 42.3551C669.086 39.9603 669.779 37.756 671.163 35.7422C672.576 33.7012 674.583 32.0684 677.186 30.8437C679.79 29.5919 682.891 28.966 686.491 28.966C690.257 28.966 693.498 29.5919 696.211 30.8437C698.925 32.0684 701.002 33.742 702.442 35.8646C703.91 37.9601 704.644 40.3413 704.644 43.0082H694.342C694.342 41.2665 693.678 39.7426 692.348 38.4363C691.047 37.1029 689.081 36.4361 686.45 36.4361C683.985 36.4361 682.143 36.994 680.925 38.1098C679.707 39.1983 679.097 40.4637 679.097 41.906C679.097 43.3484 679.72 44.5185 680.967 45.4166C682.24 46.2874 684.664 47.0902 688.236 47.825C693.387 48.8863 697.444 50.4103 700.407 52.3969C703.398 54.3562 704.893 57.3633 704.893 61.4182C704.893 64.0034 704.132 66.303 702.608 68.3168C701.113 70.3306 698.995 71.909 696.253 73.0519C693.511 74.1949 690.299 74.7664 686.616 74.7664C682.49 74.7664 679.014 74.0452 676.19 72.6029C673.365 71.1606 671.219 69.3101 669.751 67.0514C668.311 64.7926 667.591 62.4659 667.591 60.0711H677.519C677.657 62.7108 678.668 64.5749 680.551 65.6635C682.434 66.752 684.497 67.2963 686.74 67.2963C689.371 67.2963 691.365 66.7928 692.722 65.7859C694.107 64.7518 694.799 63.4592 694.799 61.908Z" fill="black"/>
<path fill-rule="evenodd" clip-rule="evenodd" d="M15.7253 10.775C14.8077 10.775 13.701 11.1929 12.7269 12.3284C11.7299 13.4907 11.0528 15.2313 11.0528 17.1951V63.7758C11.0528 65.7396 11.7299 67.4802 12.7269 68.6425C13.701 69.778 14.8077 70.1959 15.7253 70.1959H50.6887C52.1332 70.1959 53.5156 70.7735 54.5178 71.7958L65.3508 82.8456V75.4209C65.3508 72.5352 67.7313 70.1959 70.6678 70.1959H85.6521C86.5697 70.1959 87.6764 69.778 88.6505 68.6425C89.6475 67.4802 90.3246 65.7396 90.3246 63.7758V17.1951C90.3246 15.2313 89.6475 13.4907 88.6505 12.3284C87.6764 11.1929 86.5697 10.775 85.6521 10.775H15.7253ZM4.59633 5.59314C7.36904 2.36089 11.3441 0.325012 15.7253 0.325012H85.6521C90.0333 0.325012 94.0083 2.36089 96.7811 5.59314C99.5309 8.79867 100.959 12.982 100.959 17.1951V63.7758C100.959 67.9889 99.5309 72.1723 96.7811 75.3778C94.0083 78.61 90.0333 80.6459 85.6521 80.6459H75.9848V95.8C75.9848 97.931 74.6678 99.8485 72.6567 100.646C70.6455 101.443 68.3433 100.96 66.8387 99.4251L48.4281 80.6459H15.7253C11.3441 80.6459 7.36904 78.61 4.59633 75.3778C1.84653 72.1723 0.418732 67.9889 0.418732 63.7758V17.1951C0.418732 12.982 1.84653 8.79868 4.59633 5.59314ZM20.3978 28.8403C20.3978 25.9546 22.7783 23.6153 25.7148 23.6153H75.6626C78.5991 23.6153 80.9796 25.9546 80.9796 28.8403C80.9796 31.726 78.5991 34.0653 75.6626 34.0653H25.7148C22.7783 34.0653 20.3978 31.726 20.3978 28.8403ZM20.3978 52.1306C20.3978 49.2449 22.7783 46.9056 25.7148 46.9056H58.1809C61.1174 46.9056 63.4979 49.2449 63.4979 52.1306C63.4979 55.0163 61.1174 57.3556 58.1809 57.3556H25.7148C22.7783 57.3556 20.3978 55.0163 20.3978 52.1306Z" fill="black"/>
</svg>
